<svg width="28" height="28" viewBox="0 0 28 28" fill="none" xmlns="http://www.w3.org/2000/svg">
<path d="M2.80005 8.4001C2.80005 6.8537 4.05365 5.6001 5.60005 5.6001H14C15.5464 5.6001 16.8 6.8537 16.8 8.4001V19.6001C16.8 21.1465 15.5464 22.4001 14 22.4001H5.60005C4.05365 22.4001 2.80005 21.1465 2.80005 19.6001V8.4001Z" fill="#A6702E"/>
<path d="M20.374 9.9479C19.8997 10.185 19.6 10.6698 19.6 11.2001V16.8001C19.6 17.3304 19.8997 17.8151 20.374 18.0523L23.1739 19.4523C23.6079 19.6693 24.1233 19.6461 24.5361 19.391C24.9488 19.1359 25.2 18.6853 25.2 18.2001V9.8001C25.2 9.31489 24.9488 8.86428 24.5361 8.60919C24.1233 8.3541 23.6079 8.33091 23.1739 8.5479L20.374 9.9479Z" fill="#A6702E"/>
</svg>
