<svg width="28" height="28" viewBox="0 0 28 28" fill="none" xmlns="http://www.w3.org/2000/svg">
<path d="M9.79995 5.5999C9.79995 3.28031 11.6804 1.3999 14 1.3999C16.3195 1.3999 18.2 3.28031 18.2 5.5999V11.1999C18.2 13.5195 16.3195 15.3999 14 15.3999C11.6804 15.3999 9.79995 13.5195 9.79995 11.1999V5.5999Z" fill="#A6702E"/>
<path d="M15.4 20.9007C20.1492 20.2213 23.8 16.137 23.8 11.1999C23.8 10.4267 23.1732 9.7999 22.4 9.7999C21.6268 9.7999 21 10.4267 21 11.1999C21 15.0659 17.8659 18.1999 14 18.1999C10.134 18.1999 6.99995 15.0659 6.99995 11.1999C6.99995 10.4267 6.37315 9.7999 5.59995 9.7999C4.82675 9.7999 4.19995 10.4267 4.19995 11.1999C4.19995 16.137 7.85074 20.2213 12.6 20.9007V23.7999H8.39995C7.62675 23.7999 6.99995 24.4267 6.99995 25.1999C6.99995 25.9731 7.62675 26.5999 8.39995 26.5999H19.6C20.3731 26.5999 21 25.9731 21 25.1999C21 24.4267 20.3731 23.7999 19.6 23.7999H15.4V20.9007Z" fill="#A6702E"/>
</svg>
